<svg width="27" height="29" viewBox="0 0 27 29" fill="none" xmlns="http://www.w3.org/2000/svg">
<path d="M21.5292 24.8166C21.9002 25.3204 21.7929 26.0295 21.2891 26.4005C18.9812 28.1011 16.2419 29 13.3672 29C9.79662 29 6.43977 27.6096 3.91506 25.0849C1.39035 22.5602 0 19.2034 0 15.6328C0 13.2572 0.631454 10.9239 1.826 8.88461C2.59131 7.57834 3.57566 6.413 4.72485 5.4375H3.00195C2.37625 5.4375 1.86914 4.93039 1.86914 4.30469C1.86914 3.67899 2.37625 3.17188 3.00195 3.17188H5.94727C7.50887 3.17188 8.7793 4.44231 8.7793 6.00391V8.94922C8.7793 9.57492 8.27219 10.082 7.64648 10.082C7.02078 10.082 6.51367 9.57492 6.51367 8.94922V6.90086C3.86285 8.98971 2.26562 12.2151 2.26562 15.6328C2.26562 21.7542 7.2458 26.7344 13.3672 26.7344C15.7547 26.7344 18.0294 25.9883 19.9452 24.5767C20.4488 24.2055 21.1579 24.313 21.5292 24.8166ZM22.8193 6.18069C20.5634 3.92502 17.6431 2.5756 14.5 2.31364V1.13281C14.5 0.507111 13.9929 0 13.3672 0C12.7415 0 12.2344 0.507111 12.2344 1.13281V3.39844C12.2344 4.02414 12.7415 4.53125 13.3672 4.53125C19.4886 4.53125 24.4688 9.51142 24.4688 15.6328C24.4688 17.5026 23.9955 19.3505 23.1003 20.9772C22.7985 21.5252 22.9983 22.2142 23.5466 22.5158C23.7198 22.6111 23.907 22.6565 24.0917 22.6565C24.4913 22.6565 24.8787 22.4445 25.0852 22.0697C26.164 20.1092 26.7344 17.8834 26.7344 15.6328C26.7344 12.0622 25.344 8.7054 22.8193 6.18069ZM13.3672 17.8984C14.6164 17.8984 15.6328 16.882 15.6328 15.6328C15.6328 15.3467 15.579 15.073 15.4817 14.8206L19.0538 10.4064C19.4474 9.92007 19.3722 9.20676 18.8859 8.81337C18.3996 8.41976 17.6863 8.49499 17.2929 8.9813L13.721 13.3948C13.6057 13.3769 13.4875 13.3672 13.3672 13.3672C12.118 13.3672 11.1016 14.3834 11.1016 15.6328C11.1016 16.882 12.118 17.8984 13.3672 17.8984ZM21.0247 2.73933L24.1373 5.33329C24.3493 5.50985 24.6064 5.59592 24.8619 5.59592C25.1865 5.59592 25.5089 5.45697 25.7328 5.18815C26.1335 4.70759 26.0684 3.99339 25.5878 3.5927L22.4753 0.998955C21.9945 0.598267 21.2803 0.663315 20.8798 1.14388C20.4791 1.62466 20.5442 2.33886 21.0247 2.73933Z" fill="white"/>
</svg>
